<svg id="Capa_1" enable-background="new 0 0 512 512" height="512" viewBox="0 0 512 512" width="512" xmlns="http://www.w3.org/2000/svg"><g><path fill="#B3B3B3" d="m296.098 92.061-238.217 238.216 123.842 123.842 238.217-238.217zm-79.797 182.425 32.593-32.593c5.857-5.858 15.355-5.858 21.213 0s5.858 15.355 0 21.213l-32.593 32.593c-2.929 2.929-6.768 4.394-10.606 4.394s-7.678-1.464-10.606-4.394c-5.859-5.858-5.859-15.355-.001-21.213z"/><path fill="#B3B3B3" d="m438.201 191.738 14.416-28.741-103.613-103.613-28.742 14.415z"/><path fill="#B3B3B3" d="m469.187 137.141c41.163-50.546 42.762-118.807 42.812-121.9.065-4.061-1.52-7.975-4.392-10.847-2.816-2.816-6.631-4.394-10.607-4.394-.079 0-.16 0-.24.002-3.093.05-71.354 1.648-121.9 42.812z"/><path fill="#B3B3B3" d="m40.015 354.837-12.915 30.243-1.493-1.493c-5.857-5.858-15.355-5.858-21.213 0s-5.858 15.355 0 21.213l102.806 102.807c2.929 2.929 6.768 4.394 10.606 4.394s7.678-1.464 10.606-4.394c5.858-5.858 5.858-15.355 0-21.213l-1.494-1.494 30.244-12.915z"/></g></svg>