<?xml version="1.0" encoding="iso-8859-1"?>
<!-- Generator: Adobe Illustrator 19.0.0, SVG Export Plug-In . SVG Version: 6.00 Build 0)  -->
<svg version="1.1" id="Capa_1" xmlns="http://www.w3.org/2000/svg" xmlns:xlink="http://www.w3.org/1999/xlink" x="0px" y="0px"
	 viewBox="0 0 480 480" style="enable-background:new 0 0 480 480;" xml:space="preserve">
<path fill="#B3B3B3" id="XMLID_1550_" d="M430,90H262.269l65.206-73.356c3.669-4.128,3.297-10.448-0.831-14.117
	c-4.128-3.67-10.449-3.298-14.118,0.83L239.572,85.43l-52.501-52.501c-3.905-3.904-10.237-3.904-14.143,0
	c-3.905,3.905-3.905,10.237,0,14.143L215.858,90H50c-27.57,0-50,22.43-50,50v250c0,27.57,22.43,50,50,50h180v20H110
	c-5.523,0-10,4.478-10,10s4.477,10,10,10h260c5.523,0,10-4.478,10-10s-4.477-10-10-10H250v-20h180c27.57,0,50-22.43,50-50V140
	C480,112.43,457.57,90,430,90z M460,390c0,16.542-13.458,30-30,30H50c-16.542,0-30-13.458-30-30V140c0-16.542,13.458-30,30-30h380
	c16.542,0,30,13.458,30,30V390z M316.667,173.667c-19.67,0-36.932,11.912-44.397,29.234c-10.217-4.101-21.179-6.234-32.269-6.234
	s-22.052,2.134-32.269,6.234c-7.465-17.322-24.727-29.234-44.397-29.234C136.682,173.667,115,195.349,115,222
	c0,23.612,17.02,43.324,39.436,47.512c-0.733,4.557-1.102,9.175-1.102,13.821C153.334,331.121,192.212,370,240,370
	s86.666-38.879,86.666-86.667c0-4.646-0.369-9.266-1.103-13.821C347.981,265.324,365,245.612,365,222
	C365,195.349,343.318,173.667,316.667,173.667z M316.667,250.333c-0.846,0-1.715-0.042-2.656-0.129
	c-3.341-0.314-6.605,1.077-8.706,3.687c-2.102,2.609-2.756,6.098-1.745,9.291c2.061,6.508,3.106,13.288,3.106,20.151
	C306.667,320.094,276.76,350,240,350s-66.667-29.906-66.667-66.667c0-6.863,1.045-13.644,3.106-20.151
	c1.012-3.194,0.356-6.683-1.745-9.292c-1.908-2.369-4.778-3.728-7.788-3.728c-0.305,0-0.611,0.014-0.918,0.042
	c-0.94,0.087-1.809,0.129-2.655,0.129C147.711,250.333,135,237.623,135,222s12.71-28.333,28.333-28.333
	c14.229,0,26.307,10.629,28.094,24.724c0.422,3.331,2.489,6.229,5.502,7.712c3.012,1.484,6.569,1.356,9.468-0.34
	c10.17-5.95,21.789-9.096,33.602-9.096c11.812,0,23.432,3.146,33.602,9.096c2.899,1.697,6.455,1.824,9.468,0.34
	c3.013-1.483,5.08-4.381,5.502-7.712c1.788-14.095,13.866-24.724,28.094-24.724C332.29,193.667,345,206.377,345,222
	S332.29,250.333,316.667,250.333z"/>
<g>
</g>
<g>
</g>
<g>
</g>
<g>
</g>
<g>
</g>
<g>
</g>
<g>
</g>
<g>
</g>
<g>
</g>
<g>
</g>
<g>
</g>
<g>
</g>
<g>
</g>
<g>
</g>
<g>
</g>
</svg>
