<svg id="Capa_1" enable-background="new 0 0 512.001 512.001" height="512" viewBox="0 0 512.001 512.001" width="512" xmlns="http://www.w3.org/2000/svg"><g><g><path fill="#B3B3B3" d="m256 0c-91.326 0-165.625 74.299-165.625 165.625v300.624c0 24.555 19.679 45.071 43.867 45.734 12.31.348 23.918-4.196 32.724-12.763 8.809-8.57 13.659-20.057 13.659-32.344 0-8.34 6.785-15.125 15.125-15.125s15.125 6.785 15.125 15.125c.001 24.881 20.244 45.124 45.125 45.124s45.125-20.243 45.125-45.125c0-8.34 6.785-15.125 15.125-15.125s15.125 6.785 15.125 15.125c0 12.288 4.851 23.774 13.659 32.344 8.5 8.271 19.623 12.781 31.445 12.781.424 0 .852-.006 1.278-.018 24.188-.663 43.867-21.179 43.867-45.734v-300.623c.001-91.326-74.297-165.625-165.624-165.625zm135.625 466.249c0 8.46-6.59 15.523-14.689 15.746-4.117.122-8.03-1.406-10.981-4.277-2.953-2.873-4.579-6.724-4.579-10.842 0-24.882-20.243-45.125-45.125-45.125s-45.125 20.243-45.125 45.125c0 8.34-6.785 15.125-15.125 15.125s-15.125-6.785-15.125-15.125c0-24.882-20.243-45.125-45.125-45.125s-45.125 20.243-45.125 45.125c0 4.119-1.626 7.969-4.579 10.842-2.951 2.871-6.856 4.388-10.981 4.277-8.1-.222-14.689-7.286-14.689-15.746v-300.624c-.002-74.784 60.839-135.625 135.623-135.625s135.625 60.841 135.625 135.625z"/></g><g><path fill="#B3B3B3" d="m256 241c-24.882 0-45.125 20.243-45.125 45.125v60.25c0 24.882 20.243 45.125 45.125 45.125s45.125-20.243 45.125-45.125v-60.25c0-24.882-20.243-45.125-45.125-45.125zm15.125 105.375c0 8.34-6.785 15.125-15.125 15.125s-15.125-6.785-15.125-15.125v-60.25c0-8.34 6.785-15.125 15.125-15.125s15.125 6.785 15.125 15.125z"/></g><g><path fill="#B3B3B3" d="m240.876 165.625c0-24.882-20.243-45.125-45.125-45.125s-45.125 20.243-45.125 45.125 20.243 45.125 45.125 45.125 45.125-20.243 45.125-45.125zm-45.125 15.125c-8.34 0-15.125-6.785-15.125-15.125s6.785-15.125 15.125-15.125 15.125 6.785 15.125 15.125-6.786 15.125-15.125 15.125z"/></g><g><path fill="#B3B3B3" d="m316.25 120.5c-24.882 0-45.125 20.243-45.125 45.125s20.243 45.125 45.125 45.125 45.125-20.243 45.125-45.125-20.243-45.125-45.125-45.125zm0 60.25c-8.34 0-15.125-6.785-15.125-15.125s6.785-15.125 15.125-15.125 15.125 6.785 15.125 15.125-6.785 15.125-15.125 15.125z"/></g></g></svg>